# xmcd CD database file
# Copyright (C) 1997 Ti Kan
# 
# Track frame offsets:
#     183
#     12923
#     21198
#     31288
#     42493
#     52683
#     62660
#     74935
#     84965
#     95153
#     106560
#     116483
#     128930
#     139005
#     151520
#     161833
# 
# Disc length: 2297 seconds
# 
# Revision: 1
# Processed by: cddbd v1.4b41PL1 Copyright (c) Steve Scherf et al.
# Submitted via: DiscPlay 4.0.4
# 
DISCID=cc08f710
DTITLE=Johnny Cash - The Fabulous Johnny Cash
DYEAR=1900
DGENRE=
TTITLE0=Folsum Prison Blues
TTITLE1=Guess Things Happen That Way
TTITLE2=Get Rhythm
TTITLE3=Oh Lonesome Me
TTITLE4=Straight A's In Love
TTITLE5=Hey Porter
TTITLE6=I Walk The Line
TTITLE7=Ballad Of A Teenage Queen
TTITLE8=The Way Of A Woman In Love
TTITLE9=Big River
TTITLE10=Rock Island Line
TTITLE11=Give My Love To Rose
TTITLE12=Story Of A Broken Heart
TTITLE13=Next In Line
TTITLE14=There You Go
TTITLE15=Train Of Love
EXTD=
EXTT0=
EXTT1=
EXTT2=
EXTT3=
EXTT4=
EXTT5=
EXTT6=
EXTT7=
EXTT8=
EXTT9=
EXTT10=
EXTT11=
EXTT12=
EXTT13=
EXTT14=
EXTT15=
PLAYORDER=
